<svg xmlns="http://www.w3.org/2000/svg" width="27" height="12" fill="none"><g fill="#fff" opacity=".4"><mask id="a"><path fill-rule="evenodd" d="M5.226 1h13.6c.927 0 1.562 0 2.053.041.48.04.736.11.919.204.423.216.767.56.983.984.093.183.165.438.204.918.04.492.041 1.126.041 2.053v1.6c0 .927 0 1.561-.04 2.053-.04.48-.112.735-.205.918a2.25 2.25 0 0 1-.983.984c-.183.093-.438.165-.918.204-.492.04-1.127.041-2.054.041h-13.6c-.926 0-1.561 0-2.053-.041-.48-.04-.735-.11-.918-.204a2.25 2.25 0 0 1-.983-.984c-.094-.183-.165-.438-.205-.918-.04-.492-.04-1.126-.04-2.053V5.2c0-.927 0-1.561.04-2.053.04-.48.111-.735.205-.918a2.25 2.25 0 0 1 .983-.984c.183-.093.438-.165.918-.204C3.665 1.001 4.3 1 5.226 1Zm-5.2 4.2c0-1.82 0-2.73.355-3.425A3.25 3.25 0 0 1 1.8.355C2.496 0 3.406 0 5.226 0h13.6c1.82 0 2.73 0 3.426.354a3.25 3.25 0 0 1 1.42 1.42c.354.696.354 1.606.354 3.426v1.6c0 1.82 0 2.73-.354 3.426a3.25 3.25 0 0 1-1.42 1.42c-.695.354-1.605.354-3.426.354h-13.6c-1.82 0-2.73 0-3.425-.354a3.25 3.25 0 0 1-1.42-1.42C.026 9.53.026 8.62.026 6.8V5.2Zm26.5.8a2 2 0 0 0-1.5-1.937v3.874A2 2 0 0 0 26.526 6Z" clip-rule="evenodd"/></mask><path d="m20.88 1.041-.082.997.082-.997Zm.918.204-.454.891.454-.89Zm.983.984.891-.454-.89.454Zm.204.918-.996.081.996-.081Zm0 5.706-.996-.081.996.081Zm-.204.918.891.454-.89-.454Zm-.983.984-.454-.891.454.89Zm-.918.204.081.997-.081-.997Zm-17.707 0-.081.997.081-.997Zm-.918-.204.454-.891-.454.89Zm-.983-.984-.891.454.89-.454Zm-.205-.918.997-.081-.997.081Zm0-5.706.997.081-.997-.081Zm.205-.918.89.454-.89-.454Zm.983-.984.454.891-.454-.89Zm.918-.204.082.997-.082-.997Zm-2.792.734.89.454-.89-.454ZM1.8.355l.454.89L1.8.355Zm20.45 0 .455-.892-.454.891Zm1.421 1.42-.89.454.89-.454Zm0 8.45-.89-.454.89.454Zm-1.42 1.42-.454-.89.454.89Zm-20.451 0 .454-.89-.454.89Zm-1.42-1.42-.891.455.89-.454Zm24.645-6.162.25-.968-1.25-.322v1.29h1Zm0 3.874h-1v1.29l1.25-.322-.25-.968ZM18.826 0h-13.6v2h13.6V0Zm2.135.044C20.419 0 19.736 0 18.826 0v2c.944 0 1.53.002 1.972.038l.163-1.994Zm1.29.31c-.347-.177-.748-.265-1.29-.31l-.163 1.994c.419.034.527.089.546.098l.908-1.782Zm1.421 1.42a3.25 3.25 0 0 0-1.42-1.42l-.908 1.782c.235.12.426.311.546.547l1.782-.908Zm.31 1.291c-.044-.541-.133-.943-.31-1.29l-1.782.908c.01.018.064.127.099.545l1.993-.163Zm.044 2.135c0-.91 0-1.593-.044-2.135l-1.993.163c.036.442.037 1.028.037 1.972h2Zm0 1.6V5.2h-2v1.6h2Zm-.044 2.135c.044-.542.044-1.225.044-2.135h-2c0 .944-.001 1.53-.037 1.972l1.993.163Zm-.31 1.29c.177-.347.266-.749.31-1.29l-1.993-.163c-.035.418-.09.527-.099.545l1.782.909Zm-1.42 1.42a3.25 3.25 0 0 0 1.42-1.42l-1.782-.908a1.25 1.25 0 0 1-.546.547l.908 1.782Zm-1.291.31c.542-.043.943-.132 1.29-.31l-.907-1.781c-.019.01-.127.064-.546.098l.163 1.994ZM18.826 12c.91 0 1.593 0 2.135-.044l-.163-1.994c-.441.036-1.028.038-1.972.038v2Zm-13.6 0h13.6v-2h-13.6v2Zm-2.134-.044C3.634 12 4.317 12 5.226 12v-2c-.943 0-1.53-.002-1.971-.038l-.163 1.994Zm-1.291-.31c.348.177.75.265 1.29.31l.164-1.994c-.419-.034-.528-.089-.546-.098L1.8 11.646Zm-1.42-1.42a3.25 3.25 0 0 0 1.42 1.42l.908-1.782a1.25 1.25 0 0 1-.546-.547l-1.782.909ZM.07 8.934c.044.541.132.943.31 1.29l1.782-.908c-.01-.018-.065-.127-.099-.545l-1.993.163ZM.026 6.8c0 .91 0 1.593.045 2.135l1.993-.163c-.036-.442-.038-1.029-.038-1.972h-2Zm0-1.6v1.6h2V5.2h-2Zm.045-2.135C.026 3.607.026 4.29.026 5.2h2c0-.944.002-1.53.038-1.972L.071 3.065Zm.31-1.29c-.178.347-.266.749-.31 1.29l1.993.163c.034-.418.09-.527.099-.545L.38 1.775ZM1.8.355a3.25 3.25 0 0 0-1.42 1.42l1.782.908a1.25 1.25 0 0 1 .546-.547L1.8.354Zm1.29-.31c-.54.044-.942.132-1.29.31l.908 1.781c.018-.01.127-.064.546-.098L3.092.044ZM5.227 0c-.91 0-1.592 0-2.134.044l.163 1.994C3.696 2.002 4.283 2 5.226 2V0ZM-.51 1.32c-.261.513-.367 1.06-.416 1.664-.048.592-.048 1.322-.048 2.216h2c0-.927.001-1.561.041-2.053.04-.48.111-.735.205-.918L-.51 1.32ZM1.347-.536A4.25 4.25 0 0 0-.51 1.321l1.782.908a2.25 2.25 0 0 1 .983-.984L1.347-.537ZM5.227-1c-.894 0-1.625 0-2.217.048-.603.049-1.151.154-1.663.415l.908 1.782c.183-.093.438-.165.918-.204C3.665 1.001 4.3 1 5.226 1v-2Zm13.6 0h-13.6v2h13.6v-2Zm3.879.463c-.512-.26-1.06-.366-1.664-.415C20.45-1.001 19.72-1 18.826-1v2c.927 0 1.562 0 2.053.041.48.04.736.11.919.204l.908-1.782Zm1.857 1.858a4.25 4.25 0 0 0-1.857-1.858l-.908 1.782c.423.216.767.56.983.984l1.782-.908Zm.463 3.879c0-.894.001-1.624-.047-2.216-.05-.604-.155-1.151-.416-1.663l-1.782.908c.093.183.165.438.204.918.04.492.041 1.126.041 2.053h2Zm0 1.6V5.2h-2v1.6h2Zm-.463 3.88c.261-.513.366-1.06.416-1.664.048-.592.047-1.322.047-2.216h-2c0 .927 0 1.561-.04 2.053-.04.48-.112.735-.205.918l1.782.909Zm-1.857 1.857a4.25 4.25 0 0 0 1.857-1.857l-1.782-.909a2.25 2.25 0 0 1-.983.984l.908 1.782Zm-3.88.463c.894 0 1.624 0 2.216-.048.604-.049 1.152-.154 1.664-.415l-.908-1.782c-.183.093-.438.165-.918.204-.492.04-1.127.041-2.054.041v2Zm-13.6 0h13.6v-2h-13.6v2Zm-3.88-.463c.513.26 1.06.366 1.664.415.592.049 1.323.048 2.216.048v-2c-.926 0-1.561 0-2.053-.041-.48-.04-.735-.11-.918-.204l-.908 1.782ZM-.51 10.68a4.25 4.25 0 0 0 1.857 1.857l.908-1.782a2.25 2.25 0 0 1-.983-.984l-1.782.909ZM-.974 6.8c0 .894 0 1.624.048 2.216.05.604.155 1.151.416 1.664l1.782-.909c-.094-.183-.165-.438-.205-.918-.04-.492-.04-1.126-.04-2.053h-2Zm0-1.6v1.6h2V5.2h-2Zm25.751-.169a1 1 0 0 1 .75.969h2a3 3 0 0 0-2.251-2.905l-.499 1.936Zm1.25 2.906V4.063h-2v3.874h2ZM25.526 6a1 1 0 0 1-.75.969l.499 1.936A3 3 0 0 0 27.526 6h-2Z" mask="url(#a)"/></g><rect width="20" height="8" x="2.026" y="2" fill="#fff" rx="1.5"/></svg>