<svg xmlns="http://www.w3.org/2000/svg" width="36" height="10" fill="none"><path fill="#fff" d="M14.049.617c-.076.184-.076.417-.076.883v7c0 .466 0 .699.076.883a1 1 0 0 0 .541.54c.184.077.417.077.883.077s.699 0 .883-.076a1 1 0 0 0 .54-.541c.077-.184.077-.417.077-.883v-7c0-.466 0-.699-.076-.883a1 1 0 0 0-.541-.54C16.172 0 15.939 0 15.473 0s-.699 0-.883.076a1 1 0 0 0-.541.541ZM9.473 3.5c0-.466 0-.699.076-.883a1 1 0 0 1 .541-.54C10.274 2 10.507 2 10.973 2s.699 0 .883.076a1 1 0 0 1 .54.541c.077.184.077.417.077.883v5c0 .466 0 .699-.076.883a1 1 0 0 1-.541.54c-.184.077-.417.077-.883.077s-.699 0-.883-.076a1 1 0 0 1-.541-.541c-.076-.184-.076-.417-.076-.883v-5ZM5.049 4.617c-.076.184-.076.417-.076.883v3c0 .466 0 .699.076.883a1 1 0 0 0 .541.54c.184.077.417.077.883.077s.699 0 .883-.076a1 1 0 0 0 .54-.541c.077-.184.077-.417.077-.883v-3c0-.466 0-.699-.076-.883a1 1 0 0 0-.541-.54C7.172 4 6.939 4 6.473 4s-.699 0-.883.076a1 1 0 0 0-.541.541ZM.549 6.117C.473 6.301.473 6.534.473 7v1.5c0 .466 0 .699.076.883a1 1 0 0 0 .541.54c.184.077.417.077.883.077s.699 0 .883-.076a1 1 0 0 0 .54-.541c.077-.184.077-.417.077-.883V7c0-.466 0-.699-.076-.883a1 1 0 0 0-.541-.54C2.672 5.5 2.439 5.5 1.973 5.5s-.699 0-.883.076a1 1 0 0 0-.541.541ZM33.478 4.246a.286.286 0 0 0 .399-.003l1.064-1.064a.292.292 0 0 0-.003-.416A10.059 10.059 0 0 0 28 0c-2.688 0-5.13 1.05-6.938 2.763a.292.292 0 0 0-.003.416l1.064 1.064c.11.11.285.11.399.003A7.987 7.987 0 0 1 28 2.077c2.116 0 4.043.825 5.478 2.169Z"/><path fill="#fff" d="M31.03 6.696a.288.288 0 0 0 .398-.005l1.063-1.063a.292.292 0 0 0-.004-.418A6.609 6.609 0 0 0 28 3.461c-1.73 0-3.306.663-4.487 1.749a.292.292 0 0 0-.004.418l1.062 1.063c.11.11.282.108.398.005a4.538 4.538 0 0 1 3.03-1.158c1.164 0 2.226.439 3.032 1.158ZM30.035 7.661c.125.105.124.3.008.417l-1.838 1.838a.289.289 0 0 1-.408 0L25.96 8.078c-.116-.116-.117-.312.009-.417.55-.46 1.26-.738 2.033-.738a3.16 3.16 0 0 1 2.034.738Z"/></svg>